Coordinates
version=1
nRows=7
nColumns=63
inDegrees=yes

Units are S.I. units (second, meters, Newtons, ...)
If the header above contains a line with 'inDegrees', this indicates whether rotational values are in degrees (yes) or radians (no).

endheader
time	pelvis_tilt	pelvis_list	pelvis_rotation	pelvis_tx	pelvis_ty	pelvis_tz	hip_flexion_r	hip_adduction_r	hip_rotation_r	knee_angle_r	knee_angle_r_beta	ankle_angle_r	subtalar_angle_r	mtp_angle_r	hip_flexion_l	hip_adduction_l	hip_rotation_l	knee_angle_l	knee_angle_l_beta	ankle_angle_l	subtalar_angle_l	mtp_angle_l	L5_S1_Flex_Ext	L5_S1_Lat_Bending	L5_S1_axial_rotation	L4_L5_Flex_Ext	L4_L5_Lat_Bending	L4_L5_axial_rotation	L3_L4_Flex_Ext	L3_L4_Lat_Bending	L3_L4_axial_rotation	L2_L3_Flex_Ext	L2_L3_Lat_Bending	L2_L3_axial_rotation	L1_L2_Flex_Ext	L1_L2_Lat_Bending	L1_L2_axial_rotation	L1_T12_Flex_Ext	L1_T12_Lat_Bending	L1_T12_axial_rotation	Abs_r3	Abs_r2	Abs_r1	Abs_t1	Abs_t2	neck_flexion	neck_bending	neck_rotation	arm_flex_r	arm_add_r	arm_rot_r	elbow_flex_r	pro_sup_r	wrist_flex_r	wrist_dev_r	arm_flex_l	arm_add_l	arm_rot_l	elbow_flex_l	pro_sup_l	wrist_flex_l	wrist_dev_l
      0.00000000	      6.89249309	     -5.55549051	     97.53582188	      0.19498562	      0.77610929	      0.60807929	     -4.58673796	      6.77873211	     -3.50356813	      5.00354000	      0.08732825	     26.57685805	     -8.27440676	      0.00000000	     -0.62615563	     -4.22281431	     15.95794578	     11.69874710	      0.20418166	     34.46117784	    -13.03474878	      0.00000000	     -0.01503622	      0.49833085	     -0.66699912	     -0.02792376	      0.66278003	     -0.70868656	     -0.02470300	      1.21164162	     -0.70868656	     -0.01718489	      1.21164162	     -0.58362423	     -0.01396263	      1.01619626	     -0.54193678	     -0.00859169	      0.77191448	     -0.50024934	     -0.10740218	      5.63721820	     -3.70964900	      0.00000000	      0.00000000	     24.00243282	      0.03039041	     -4.62226629	     16.57266936	     -6.20314155	     81.26830226	     44.05483766	     27.87931918	      0.81854617	     11.95411391	     14.55838610	     -5.12543208	     62.81083212	     46.51522033	     59.73376185	      9.19573875	     14.19331933
      0.01694915	      6.92813967	     -5.66148627	     97.63124119	      0.19484437	      0.77601158	      0.60861744	     -4.41603460	      6.81925557	     -2.01648686	      4.82644642	      0.08423738	     26.50289480	    -10.09888443	      0.00000000	     -0.43622052	     -4.19229260	     15.84619394	     11.95922502	      0.20872785	     34.19364425	    -13.67867007	      0.00000000	     -0.01201720	      0.50236514	     -0.69881484	     -0.02231715	      0.66814564	     -0.74249077	     -0.01974306	      1.22145061	     -0.74249077	     -0.01373446	      1.22145061	     -0.61146298	     -0.01115918	      1.02442300	     -0.56778706	     -0.00686663	      0.77816361	     -0.52411113	     -0.08583769	      5.68285499	     -3.88659849	      0.00000000	      0.00000000	     24.20518276	      0.10813960	     -4.48077729	     15.31933531	     -6.00943514	     79.20823142	     43.55435600	     28.55385864	      0.53602467	     12.44066460	     14.23371601	     -5.25207339	     62.87756828	     47.02021984	     60.36802280	      7.24797876	     12.73699058
      0.03389831	      6.92685278	     -5.73694400	     97.61521162	      0.19491444	      0.77591017	      0.60883294	     -4.30666656	      6.84418944	     -0.43536191	      4.72570045	      0.08247903	     26.23062706	    -12.11211879	      0.00000000	     -0.37387331	     -4.15669463	     15.71839271	     12.04334838	      0.21019608	     33.97645614	    -14.12664813	      0.00000000	     -0.00609109	      0.50018473	     -0.69371342	     -0.01131176	      0.66524569	     -0.73707051	     -0.01000705	      1.21614916	     -0.73707051	     -0.00696151	      1.21614916	     -0.60699924	     -0.00565619	      1.01997670	     -0.56364215	     -0.00348045	      0.77478615	     -0.52028506	     -0.04350804	      5.65818972	     -3.85822591	      0.00000000	      0.00000000	     24.28559030	      0.10192256	     -4.57175236	     14.31008247	     -5.87670313	     77.18913625	     43.20773095	     30.38141381	      0.45324776	     12.74968067	     13.88012950	     -5.28054042	     62.45778503	     47.29929135	     60.73303660	      6.34503556	     12.19554496
      0.05084746	      6.86991799	     -5.74906340	     97.71577033	      0.19481649	      0.77587154	      0.60890228	     -4.30006340	      6.78550057	     -0.36207355	      4.64796770	      0.08112234	     26.34098091	    -12.24491819	      0.00000000	     -0.34387535	     -4.06766161	     15.77407054	     12.13695906	      0.21182990	     33.83272663	    -14.42597061	      0.00000000	     -0.00461828	      0.49291797	     -0.70814744	     -0.00857661	      0.65558090	     -0.75240665	     -0.00758737	      1.19848076	     -0.75240665	     -0.00527823	      1.19848076	     -0.61962901	     -0.00428853	      1.00515833	     -0.57536979	     -0.00263889	      0.76352994	     -0.53111058	     -0.03298791	      5.57598669	     -3.93850360	      0.00000000	      0.00000000	     24.28673539	      0.12636775	     -4.56200225	     13.81441005	     -5.81863920	     76.33741415	     43.00727934	     30.59135670	      0.40581958	     12.45231903	     13.56641579	     -5.27899559	     61.86789705	     47.49303457	     61.27867958	      5.79941728	     12.07256382
      0.06779661	      6.76663648	     -5.66297035	     97.50232481	      0.19513634	      0.77599669	      0.60877964	     -4.41931167	      6.65092314	     -0.73300676	      4.61508108	      0.08054836	     26.63750912	    -11.38461358	      0.00000000	     -0.50380151	     -4.03131895	     14.95455887	     12.10753849	      0.21131641	     34.00226572	    -13.63090351	      0.00000000	     -0.01856703	      0.48033347	     -0.66072479	     -0.03448083	      0.63884351	     -0.70202009	     -0.03050377	      1.16788279	     -0.70202009	     -0.02122026	      1.16788279	     -0.57813419	     -0.01724134	      0.97949601	     -0.53683890	     -0.01060920	      0.74403654	     -0.49554360	     -0.13262243	      5.43362826	     -3.67475309	      0.00000000	      0.00000000	     24.25941863	      0.19873049	     -4.59907834	     13.64298652	     -5.80337389	     75.96781277	     42.92171943	     31.11045167	      0.22213301	     12.06227367	     13.39125066	     -5.28272182	     61.49759865	     47.58009027	     61.41056138	      5.38893119	     11.95683959
      0.08474576	      6.63547817	     -5.68413945	     97.69443800	      0.19490725	      0.77589313	      0.60833560	     -4.45166119	      6.56080266	     -0.43020797	      4.56773798	      0.07972207	     26.52501865	    -12.19809481	      0.00000000	     -0.53068623	     -3.79325419	     16.07835636	     12.08023954	      0.21083995	     33.65732323	    -14.89268182	      0.00000000	     -0.00727792	      0.46367944	     -0.71653315	     -0.01351582	      0.61669366	     -0.76131647	     -0.01195689	      1.12739019	     -0.76131647	     -0.00831793	      1.12739019	     -0.62696650	     -0.00675828	      0.94553512	     -0.58218318	     -0.00415860	      0.71823945	     -0.53739986	     -0.05198545	      5.24523457	     -3.98514240	      0.00000000	      0.00000000	     24.17054762	      0.26585132	     -4.52704319	     13.59327392	     -5.79278595	     75.88979425	     42.92519865	     32.58578732	      0.02846190	     11.47106154	     12.56882500	     -5.17659561	     59.22906654	     47.84012627	     64.20466767	      5.60411805	     12.66011096
      0.10169492	      6.49901312	     -5.62314670	     97.59042142	      0.19501376	      0.77597118	      0.60778954	     -4.58543474	      6.41137032	     -0.80023187	      4.50225857	      0.07857924	     26.77855923	    -11.60753377	      0.00000000	     -0.69011154	     -3.62847013	     16.33056245	     11.99183750	      0.20929705	     33.64451430	    -15.12077564	      0.00000000	     -0.01226796	      0.44577258	     -0.69620946	     -0.02278283	      0.59287753	     -0.73972255	     -0.02015504	      1.08385145	     -0.73972255	     -0.01402106	      1.08385145	     -0.60918328	     -0.01139203	      0.90901945	     -0.56567018	     -0.00700991	      0.69050173	     -0.52215709	     -0.08762883	      5.04266860	     -3.87210815	      0.00000000	      0.00000000	     24.13021474	      0.28388560	     -4.70192057	     13.68007183	     -5.83534018	     76.04535786	     42.90860390	     33.96532805	      0.09629067	     10.89315441	     12.16691322	     -5.08084830	     58.10470527	     47.91389803	     65.30000635	      5.72008746	     13.08405185
